<svg xmlns="http://www.w3.org/2000/svg" viewBox="0 0 253.63 253.95"><defs><style>.cls-1{fill:#24b97d;}.cls-2{fill:#fefefe;}</style></defs><title>Ресурс 2яясссссс</title><g id="Слой_2" data-name="Слой 2"><g id="Слой_1-2" data-name="Слой 1"><path class="cls-1" d="M113.57.12C127.86-.26,144.64,0,161,4.92c39.3,11.77,67.45,36.48,82.84,74.34s12.41,75.23-7.45,111.11c-5.25,9.48-10.65,10.31-18.3,2.76-5.91-5.85-11.82-11.7-17.66-17.62-5.06-5.12-5.6-8.65-2.55-15.22A78.84,78.84,0,0,0,126.28,48.17c-12-.09-24,0-36,0C81.46,48.12,78.4,45,78.38,36c0-8.34-.06-16.67,0-25C78.46,3.53,81.89.19,89.5.13,96.67.07,103.83.12,113.57.12Z"/><path class="cls-2" d="M24,127c4,0,8,0,12,0,7.74,0,11.2,3.1,12.35,10.72,3.76,24.91,16.31,44.26,37.93,57,23.37,13.78,47.91,14.8,72.83,4,8-3.48,10.28-3.2,16.38,2.88s12.06,12,18,18,5.4,11.91-1.88,16.28C111.71,283.93,8,231.05.07,138.15-.55,130.92,2.81,127.1,10,127,14.69,126.9,19.35,127,24,127Z"/><path class="cls-1" d="M174.47,127.3a48,48,0,1,1-48.11-48.36A47.95,47.95,0,0,1,174.47,127.3Z"/></g></g></svg>