<svg width="12" height="12" viewBox="0 0 12 12" fill="none" xmlns="http://www.w3.org/2000/svg">
<path fill-rule="evenodd" clip-rule="evenodd" d="M6 12C9.31371 12 12 9.31371 12 6C12 2.68629 9.31371 0 6 0C2.68629 0 0 2.68629 0 6C0 9.31371 2.68629 12 6 12ZM5.16854 10H6.8427V4.50653H5.16854V10ZM6.69663 3.59791C6.89888 3.43081 7 3.20453 7 2.91906C7 2.63359 6.89888 2.41079 6.69663 2.25065C6.50187 2.08355 6.26966 2 6 2C5.73034 2 5.49438 2.08355 5.29213 2.25065C5.09738 2.41079 5 2.63359 5 2.91906C5 3.20453 5.09738 3.43081 5.29213 3.59791C5.49438 3.75805 5.73034 3.83812 6 3.83812C6.26966 3.83812 6.50187 3.75805 6.69663 3.59791Z" fill="#56CCF2"/>
</svg>
