<svg width="43" height="35" viewBox="0 0 43 35" fill="none" xmlns="http://www.w3.org/2000/svg">
<path d="M41.8879 30.362C41.8879 31.3278 41.5043 32.254 40.8214 32.9369C40.1385 33.6198 39.2122 34.0035 38.2465 34.0035H5.47347C4.5077 34.0035 3.58149 33.6198 2.89859 32.9369C2.21568 32.254 1.83203 31.3278 1.83203 30.362V10.3341C1.83203 9.36831 2.21568 8.44209 2.89859 7.75919C3.58149 7.07629 4.5077 6.69264 5.47347 6.69264H12.7564L16.3978 1.23047H27.3221L30.9636 6.69264H38.2465C39.2122 6.69264 40.1385 7.07629 40.8214 7.75919C41.5043 8.44209 41.8879 9.36831 41.8879 10.3341V30.362Z" stroke="white" stroke-width="2" stroke-linecap="round" stroke-linejoin="round"/>
<path d="M21.86 26.7181C25.8823 26.7181 29.1429 23.4575 29.1429 19.4352C29.1429 15.413 25.8823 12.1523 21.86 12.1523C17.8378 12.1523 14.5771 15.413 14.5771 19.4352C14.5771 23.4575 17.8378 26.7181 21.86 26.7181Z" stroke="white" stroke-width="2" stroke-linecap="round" stroke-linejoin="round"/>
</svg>
