<svg width="18" height="18" viewBox="0 0 18 18" fill="none" xmlns="http://www.w3.org/2000/svg">
<g opacity="0.5">
<path d="M14.7505 6.59009H8.1559C7.34654 6.59009 6.69043 7.2462 6.69043 8.05555V14.6501C6.69043 15.4595 7.34654 16.1156 8.1559 16.1156H14.7505C15.5598 16.1156 16.216 15.4595 16.216 14.6501V8.05555C16.216 7.2462 15.5598 6.59009 14.7505 6.59009Z" stroke="white" stroke-width="2" stroke-linecap="round" stroke-linejoin="round"/>
<path d="M3.75972 10.9865H3.02699C2.63832 10.9865 2.26558 10.8321 1.99075 10.5572C1.71592 10.2824 1.56152 9.90966 1.56152 9.521V2.9264C1.56152 2.53774 1.71592 2.16499 1.99075 1.89016C2.26558 1.61533 2.63832 1.46094 3.02699 1.46094H9.62158C10.0102 1.46094 10.383 1.61533 10.6578 1.89016C10.9327 2.16499 11.087 2.53774 11.087 2.9264V3.65914" stroke="white" stroke-width="2" stroke-linecap="round" stroke-linejoin="round"/>
</g>
</svg>
