<svg width="17" height="17" viewBox="0 0 17 17" fill="none" xmlns="http://www.w3.org/2000/svg">
<path d="M8.13954 1.89331H2.6534C2.23769 1.89331 1.839 2.05845 1.54504 2.35241C1.25108 2.64637 1.08594 3.04506 1.08594 3.46078V14.433C1.08594 14.8488 1.25108 15.2475 1.54504 15.5414C1.839 15.8354 2.23769 16.0005 2.6534 16.0005H13.6257C14.0414 16.0005 14.4401 15.8354 14.734 15.5414C15.028 15.2475 15.1931 14.8488 15.1931 14.433V8.94691" stroke="white" stroke-linecap="round" stroke-linejoin="round"/>
<path d="M13.4955 1.28215C13.8012 0.976435 14.2158 0.804687 14.6482 0.804688C15.0805 0.804688 15.4952 0.976435 15.8009 1.28215C16.1066 1.58786 16.2783 2.0025 16.2783 2.43484C16.2783 2.86718 16.1066 3.28182 15.8009 3.58753L8.50048 10.8879L5.42664 11.6564L6.1951 8.58254L13.4955 1.28215Z" stroke="white" stroke-linecap="round" stroke-linejoin="round"/>
</svg>
