<svg width="18" height="18" viewBox="0 0 18 18" fill="none" xmlns="http://www.w3.org/2000/svg">
<g opacity="0.5">
<path d="M8.15612 3.43872H3.02699C2.63832 3.43872 2.26558 3.59312 1.99075 3.86795C1.71592 4.14277 1.56152 4.51552 1.56152 4.90419V15.1624C1.56152 15.5511 1.71592 15.9239 1.99075 16.1987C2.26558 16.4735 2.63832 16.6279 3.02699 16.6279H13.2852C13.6739 16.6279 14.0467 16.4735 14.3215 16.1987C14.5963 15.9239 14.7507 15.5511 14.7507 15.1624V10.0333" stroke="white" stroke-width="2" stroke-linecap="round" stroke-linejoin="round"/>
<path d="M13.6517 2.33954C13.9432 2.04804 14.3386 1.88428 14.7508 1.88428C15.163 1.88428 15.5584 2.04804 15.8499 2.33954C16.1414 2.63104 16.3052 3.0264 16.3052 3.43864C16.3052 3.85088 16.1414 4.24624 15.8499 4.53774L8.88894 11.4987L5.95801 12.2314L6.69074 9.3005L13.6517 2.33954Z" stroke="white" stroke-width="2" stroke-linecap="round" stroke-linejoin="round"/>
</g>
</svg>
