<svg width="15" height="16" viewBox="0 0 15 16" fill="none" xmlns="http://www.w3.org/2000/svg">
<path fill-rule="evenodd" clip-rule="evenodd" d="M7.79711 12.3352C10.377 12.3352 12.4685 10.2437 12.4685 7.66381C12.4685 5.08389 10.377 2.99246 7.79711 2.99246C5.21719 2.99246 3.12576 5.08389 3.12576 7.66381C3.12576 10.2437 5.21719 12.3352 7.79711 12.3352ZM7.79711 14.6084C11.6325 14.6084 14.7417 11.4992 14.7417 7.66381C14.7417 3.82843 11.6325 0.719238 7.79711 0.719238C3.96173 0.719238 0.852539 3.82843 0.852539 7.66381C0.852539 11.4992 3.96173 14.6084 7.79711 14.6084Z" fill="#EB5757"/>
<path d="M12.249 0.169678L13.998 1.52894L3.32623 15.2604L1.57724 13.9012L12.249 0.169678Z" fill="#EB5757"/>
</svg>
