<svg width="19" height="20" viewBox="0 0 19 20" fill="none" xmlns="http://www.w3.org/2000/svg">
<path d="M1 4.25562H2.92919H18.3627" stroke="#EB5757" stroke-linecap="round" stroke-linejoin="round"/>
<path d="M5.95743 4.68958V2.84479C5.95743 2.35552 6.15342 1.88629 6.5023 1.54033C6.85117 1.19436 7.32434 1 7.81772 1H11.5383C12.0317 1 12.5049 1.19436 12.8537 1.54033C13.2026 1.88629 13.3986 2.35552 13.3986 2.84479V4.68958M16.189 4.68958V17.6031C16.189 18.0924 15.993 18.5616 15.6442 18.9076C15.2953 19.2535 14.8221 19.4479 14.3287 19.4479H5.02728C4.5339 19.4479 4.06073 19.2535 3.71186 18.9076C3.36299 18.5616 3.16699 18.0924 3.16699 17.6031V4.68958H16.189Z" stroke="#EB5757" stroke-linecap="round" stroke-linejoin="round"/>
<path d="M7.50757 9.67798V15.1038" stroke="#EB5757" stroke-linecap="round" stroke-linejoin="round"/>
<path d="M11.845 9.67798V15.1038" stroke="#EB5757" stroke-linecap="round" stroke-linejoin="round"/>
</svg>
