<svg xmlns="http://www.w3.org/2000/svg" viewBox="0 0 160 160.01"><defs><style>.cls-1{fill:#af0020;}</style></defs><title>Ресурс 1яясссссс</title><g id="Слой_2" data-name="Слой 2"><g id="Слой_1-2" data-name="Слой 1"><path class="cls-1" d="M79.69,0C36-.17.11,35.91,0,80.09-.11,123.44,35.84,159.93,78.73,160c45,.09,81.3-35.53,81.27-79.7A80.29,80.29,0,0,0,79.69,0Zm0,144C44.15,143.56,15.91,115.13,16,79.92a63.92,63.92,0,1,1,127.84.17C143.81,115.53,114.78,144.43,79.67,144Z"/><path class="cls-1" d="M111.72,100.65a15,15,0,0,1-1,1.27c-2.9,2.93-5.88,5.78-8.69,8.79-1.56,1.67-2.29.37-3.22-.57-5.57-5.56-11.2-11.06-16.65-16.73-1.7-1.77-2.67-1.81-4.4,0-5.44,5.68-11.14,11.11-16.61,16.76-1.45,1.5-2.3,1.68-3.76,0a84.52,84.52,0,0,0-7.15-7.14c-1.92-1.68-2.07-2.77-.09-4.64,5.43-5.15,10.56-10.64,16-15.8,2-1.91,2.39-3,.13-5.15C60.68,72.28,55.48,66.69,50,61.43c-1.81-1.74-1.77-2.77.05-4.37a64.77,64.77,0,0,0,6.87-6.89c1.82-2.16,2.9-1.66,4.62.14,5.36,5.58,11,10.92,16.34,16.5,1.63,1.7,2.49,1.63,4.08,0C87.4,61.12,93.07,55.67,98.56,50,100,48.5,101,48,102.64,49.86a96,96,0,0,0,7.67,7.69c1.51,1.38,1.25,2.2-.09,3.5-5.71,5.59-11.26,11.35-17,16.89-1.69,1.63-1.63,2.52,0,4.12C98.89,87.52,104.4,93.14,110,98.71,110.55,99.31,111.09,100,111.72,100.65Z"/></g></g></svg>