<svg xmlns="http://www.w3.org/2000/svg" viewBox="0 0 315.31 281.38"><defs><style>.cls-1{fill:#fea400;}</style></defs><title>Ресурс 1яясссссс</title><g id="Слой_2" data-name="Слой 2"><g id="Слой_1-2" data-name="Слой 1"><path class="cls-1" d="M314.58,248a52.09,52.09,0,0,0-6.28-15.16Q247.23,127.07,186.22,21.31a58.27,58.27,0,0,0-9.86-13.13c-11.38-10.94-26-10.9-37.43.09A56.74,56.74,0,0,0,129.36,21Q68.07,127.18,6.77,233.35a54,54,0,0,0-5.63,13.29C-2.92,262,4.07,274.56,19.27,279.4c5.82,1.85,11.79,2,17.79,2q60.22,0,120.45,0,59.48,0,119,0c3.83,0,7.68,0,11.49-.31C307.39,279.47,318.33,265.88,314.58,248ZM140.42,80.8a23.61,23.61,0,0,1,27-5.68c9.06,4,15.11,14.44,13.65,24.46-3.13,21.37-6.54,42.7-9.77,64.06A111.93,111.93,0,0,0,169.73,177c-.12,4-1.39,5.82-5.59,5.26a48.42,48.42,0,0,0-6.49-.05c-11,0-10.78,0-12.07-11.15-2.54-22-6.65-43.69-10.56-65.44C133.39,96.55,134,88,140.42,80.8ZM157.9,243.3A23.53,23.53,0,0,1,134,220.17c-.08-12.66,10.7-23.58,23.47-23.77,12.61-.18,23.58,10.55,23.88,23.37S170.93,243.21,157.9,243.3Z"/></g></g></svg>